<svg xmlns="http://www.w3.org/2000/svg" xmlns:xlink="http://www.w3.org/1999/xlink" version="1.1" width="50" height="50" viewBox="0 0 256 256" xml:space="preserve">

<defs>
</defs>
<g style="stroke: none; stroke-width: 0; stroke-dasharray: none; stroke-linecap: butt; stroke-linejoin: miter; stroke-miterlimit: 10; fill: none; fill-rule: nonzero; opacity: 1;" transform="translate(1.4065934065934016 1.4065934065934016) scale(2.81 2.81)" >
	<circle cx="45" cy="45" r="45" style="stroke: none; stroke-width: 1; stroke-dasharray: none; stroke-linecap: butt; stroke-linejoin: miter; stroke-miterlimit: 10; fill: rgb(254,192,6); fill-rule: nonzero; opacity: 1;" transform="  matrix(1 0 0 1 0 0) "/>
	<path d="M 69.331 29.13 c -0.003 -0.072 -0.01 -0.142 -0.021 -0.213 c -0.01 -0.062 -0.022 -0.122 -0.037 -0.181 c -0.016 -0.065 -0.036 -0.128 -0.059 -0.191 c -0.023 -0.062 -0.047 -0.121 -0.076 -0.18 c -0.027 -0.057 -0.057 -0.112 -0.09 -0.166 c -0.037 -0.06 -0.076 -0.118 -0.119 -0.174 c -0.02 -0.027 -0.034 -0.057 -0.056 -0.083 c -0.018 -0.022 -0.041 -0.037 -0.06 -0.058 c -0.047 -0.052 -0.097 -0.099 -0.149 -0.145 c -0.048 -0.042 -0.095 -0.083 -0.146 -0.12 c -0.053 -0.039 -0.108 -0.073 -0.165 -0.106 c -0.055 -0.032 -0.109 -0.064 -0.166 -0.09 c -0.061 -0.028 -0.123 -0.051 -0.187 -0.073 c -0.058 -0.02 -0.116 -0.04 -0.176 -0.055 c -0.065 -0.016 -0.13 -0.027 -0.197 -0.036 c -0.065 -0.009 -0.129 -0.017 -0.195 -0.02 c -0.03 -0.001 -0.059 -0.009 -0.089 -0.009 H 22.659 c -0.029 0 -0.056 0.007 -0.084 0.008 c -0.069 0.003 -0.138 0.011 -0.206 0.021 c -0.063 0.009 -0.125 0.019 -0.186 0.034 c -0.063 0.015 -0.124 0.036 -0.186 0.058 c -0.061 0.022 -0.121 0.043 -0.179 0.07 c -0.059 0.027 -0.115 0.06 -0.171 0.093 c -0.056 0.033 -0.11 0.066 -0.162 0.104 c -0.051 0.037 -0.099 0.078 -0.146 0.121 c -0.052 0.046 -0.102 0.094 -0.15 0.146 c -0.019 0.021 -0.042 0.036 -0.06 0.058 c -0.022 0.026 -0.036 0.056 -0.056 0.082 c -0.043 0.056 -0.082 0.114 -0.119 0.175 c -0.033 0.054 -0.062 0.109 -0.089 0.165 c -0.029 0.059 -0.054 0.12 -0.077 0.182 c -0.023 0.063 -0.042 0.125 -0.059 0.189 c -0.015 0.06 -0.028 0.121 -0.037 0.183 c -0.011 0.071 -0.018 0.141 -0.021 0.212 c -0.002 0.033 -0.01 0.065 -0.01 0.098 v 31.543 c 0 1.104 0.896 2 2 2 h 44.682 c 1.104 0 2 -0.896 2 -2 V 29.228 C 69.341 29.194 69.333 29.163 69.331 29.13 z M 61.852 31.228 L 45 45.388 l -16.852 -14.16 H 61.852 z M 24.659 58.771 V 33.521 l 19.054 16.01 C 44.085 49.844 44.542 50 45 50 s 0.915 -0.156 1.286 -0.469 L 65.341 33.52 v 25.251 H 24.659 z" style="stroke: none; stroke-width: 1; stroke-dasharray: none; stroke-linecap: butt; stroke-linejoin: miter; stroke-miterlimit: 10; fill: rgb(255,255,255); fill-rule: nonzero; opacity: 1;" transform=" matrix(1 0 0 1 0 0) " stroke-linecap="round" />
</g>
</svg>