<svg xmlns="http://www.w3.org/2000/svg" xmlns:xlink="http://www.w3.org/1999/xlink" version="1.1" width="50" height="50" viewBox="0 0 256 256" xml:space="preserve">

<defs>
</defs>
<g style="stroke: none; stroke-width: 0; stroke-dasharray: none; stroke-linecap: butt; stroke-linejoin: miter; stroke-miterlimit: 10; fill: none; fill-rule: nonzero; opacity: 1;" transform="translate(1.4065934065934016 1.4065934065934016) scale(2.81 2.81)" >
	<path d="M 45 0 C 28.967 0 14.902 8.392 6.932 21.015 c 2.729 1.97 6.069 3.145 9.693 3.145 h 32.399 c 17.08 0 32.123 8.704 40.948 21.915 C 89.981 45.716 90 45.36 90 45 C 90 20.147 69.853 0 45 0 z" style="stroke: none; stroke-width: 1; stroke-dasharray: none; stroke-linecap: butt; stroke-linejoin: miter; stroke-miterlimit: 10; fill: rgb(249,246,0); fill-rule: nonzero; opacity: 1;" transform=" matrix(1 0 0 1 0 0) " stroke-linecap="round" />
	<path d="M 90 45 c 0 -1.207 -0.062 -2.399 -0.155 -3.583 C 81.002 27.735 66.02 20.885 49.024 20.885 H 16.625 c -3.159 0 -6.101 -0.494 -8.614 -1.504 C 3.387 26.046 0.51 34.014 0.063 42.629 c 9.023 11.127 22.794 18.247 38.236 18.247 h 0.744 c 9.038 0 13.101 3.942 13.329 12.925 c 0.004 -0.143 0.022 -0.282 0.022 -0.426 c 0 8.417 -3.516 15.355 -11.172 16.456 C 42.469 89.934 43.726 90 45 90 C 69.853 90 90 69.853 90 45 z" style="stroke: none; stroke-width: 1; stroke-dasharray: none; stroke-linecap: butt; stroke-linejoin: miter; stroke-miterlimit: 10; fill: rgb(237,234,0); fill-rule: nonzero; opacity: 1;" transform=" matrix(1 0 0 1 0 0) " stroke-linecap="round" />
	<path d="M 41.27 89.834 c 7.988 -1.072 14.169 -7.802 14.378 -16.034 c -0.228 -8.983 -7.566 -16.2 -16.604 -16.2 h -0.744 c -15.296 0 -28.947 -6.992 -37.973 -17.938 C 0.119 41.414 0 43.193 0 45 C 0 68.595 18.164 87.936 41.27 89.834 z" style="stroke: none; stroke-width: 1; stroke-dasharray: none; stroke-linecap: butt; stroke-linejoin: miter; stroke-miterlimit: 10; fill: rgb(227,224,0); fill-rule: nonzero; opacity: 1;" transform=" matrix(1 0 0 1 0 0) " stroke-linecap="round" />
	<path d="M 45.316 68.471 c -0.142 0 -0.277 -0.005 -0.38 -0.01 c -0.082 0.007 -0.166 0.01 -0.25 0.01 c -2.977 0 -4.967 -1.407 -6.724 -2.65 c -1.259 -0.889 -2.446 -1.729 -3.838 -1.96 c -0.683 -0.113 -1.363 -0.171 -2.02 -0.171 c -1.183 0 -2.118 0.184 -2.801 0.317 c -0.42 0.082 -0.782 0.152 -1.062 0.152 c -0.293 0 -0.649 -0.065 -0.798 -0.572 c -0.118 -0.4 -0.202 -0.788 -0.284 -1.161 c -0.204 -0.932 -0.351 -1.501 -0.701 -1.555 c -3.734 -0.576 -5.94 -1.425 -6.379 -2.453 c -0.045 -0.102 -0.071 -0.212 -0.077 -0.324 c -0.017 -0.306 0.199 -0.575 0.502 -0.625 c 2.965 -0.489 5.602 -2.055 7.837 -4.66 c 1.731 -2.016 2.582 -3.942 2.673 -4.155 c 0.004 -0.01 0.008 -0.02 0.014 -0.029 c 0.431 -0.874 0.517 -1.63 0.256 -2.244 c -0.481 -1.134 -2.074 -1.64 -3.129 -1.975 c -0.263 -0.083 -0.51 -0.162 -0.708 -0.24 c -0.935 -0.369 -2.471 -1.149 -2.267 -2.225 c 0.149 -0.785 1.187 -1.332 2.027 -1.332 c 0.233 0 0.439 0.041 0.613 0.122 c 0.948 0.445 1.801 0.669 2.535 0.669 c 0.912 0 1.353 -0.347 1.46 -0.446 c -0.027 -0.498 -0.058 -0.996 -0.09 -1.495 c -0.214 -3.407 -0.481 -7.646 0.603 -10.077 c 3.246 -7.278 10.129 -7.844 12.161 -7.844 c 0.335 -0.003 0.671 -0.006 1.006 -0.009 c 2.037 0 8.935 0.567 12.183 7.848 c 1.084 2.432 0.817 6.676 0.602 10.086 l -0.01 0.163 c -0.03 0.463 -0.057 0.901 -0.08 1.326 c 0.1 0.093 0.504 0.41 1.324 0.443 c 0.7 -0.027 1.503 -0.251 2.388 -0.665 c 0.274 -0.128 0.577 -0.155 0.782 -0.155 c 0.311 0 0.627 0.061 0.891 0.171 l 0.014 0.005 c 0.751 0.266 1.243 0.799 1.253 1.359 c 0.009 0.522 -0.379 1.301 -2.285 2.055 c -0.195 0.077 -0.445 0.156 -0.708 0.24 c -1.055 0.335 -2.647 0.84 -3.128 1.974 c -0.262 0.615 -0.175 1.37 0.256 2.244 c 0.005 0.01 0.009 0.019 0.014 0.03 c 0.133 0.311 3.344 7.634 10.51 8.815 c 0.302 0.05 0.518 0.319 0.502 0.625 c -0.007 0.113 -0.034 0.224 -0.08 0.327 c -0.436 1.022 -2.643 1.869 -6.378 2.446 c -0.351 0.054 -0.498 0.621 -0.7 1.549 c -0.083 0.383 -0.168 0.759 -0.285 1.153 c -0.108 0.371 -0.351 0.552 -0.739 0.552 H 61.76 c -0.253 0 -0.611 -0.046 -1.062 -0.134 c -0.79 -0.154 -1.675 -0.297 -2.801 -0.297 c -0.656 0 -1.336 0.058 -2.02 0.171 c -1.39 0.231 -2.577 1.07 -3.834 1.958 C 50.284 67.063 48.292 68.471 45.316 68.471" style="stroke: none; stroke-width: 1; stroke-dasharray: none; stroke-linecap: butt; stroke-linejoin: miter; stroke-miterlimit: 10; fill: rgb(255,255,255); fill-rule: nonzero; opacity: 1;" transform=" matrix(1 0 0 1 0 0) " stroke-linecap="round" />
</g>
</svg>